<svg id="Layer_1" data-name="Layer 1" xmlns="http://www.w3.org/2000/svg" viewBox="0 0 991 991"><defs><style>.cls-1{fill:#fff;}</style></defs><path class="cls-1" d="M838.32,66.31a85.72,85.72,0,0,1,.15,171.44A86.88,86.88,0,0,1,803,230.14l-7.15-3.23-5.54,5.54-42,42L742.76,280l3.23,7.15a85.79,85.79,0,0,1,0,70.56l-3.23,7.15,5.55,5.54,43.26,43.27,5.55,5.55,7.15-3.23a86.72,86.72,0,0,1,35.43-7.61,85.69,85.69,0,0,1,0,171.37,86.79,86.79,0,0,1-35.42-7.6L797.13,569l-5.55,5.54-43.31,43.3-5.55,5.55,3.23,7.15A85.69,85.69,0,0,1,746,701l-3.23,7.15,5.55,5.55L789.56,755l5.55,5.54,7.15-3.23a85.76,85.76,0,1,1-42.8,42.81l3.23-7.16-5.55-5.54-41.29-41.29-5.54-5.55-7.15,3.23a86.72,86.72,0,0,1-35.43,7.61,85,85,0,0,1-60.5-25.05,86.19,86.19,0,0,1-17.43-95.91l3.23-7.15-5.55-5.54-43.26-43.28L538.67,569l-7.15,3.23a85.92,85.92,0,0,1-70.55,0L453.82,569l-5.55,5.55-44.76,44.76L398,624.83l3.22,7.15a86.17,86.17,0,0,1-17.43,95.92,85,85,0,0,1-60.49,25,86.72,86.72,0,0,1-35.43-7.61l-7.15-3.23-5.55,5.55L231.84,791l-5.54,5.55,3.22,7.15a86.17,86.17,0,0,1-17.43,95.93,85.76,85.76,0,1,1-60.8-146.33,86.8,86.8,0,0,1,35.44,7.61l7.15,3.23,5.54-5.55,43.3-43.31,5.55-5.54L245,702.54a86.21,86.21,0,0,1,17.43-95.92,85,85,0,0,1,60.49-25,86.88,86.88,0,0,1,35.43,7.61l7.15,3.23,5.55-5.55,44.76-44.76,5.54-5.55-3.22-7.15a85.77,85.77,0,0,1,0-70.55l3.23-7.15-5.55-5.54-41.29-41.29L369,399.33l-7.15,3.23a85.76,85.76,0,1,1,42.81-42.8l-3.23,7.15,5.55,5.54,41.27,41.28,5.55,5.55,7.15-3.23a85.94,85.94,0,0,1,70.56,0l7.15,3.23,5.55-5.55,43.3-43.3,5.54-5.55-3.22-7.15a86.17,86.17,0,0,1,17.44-95.92,85,85,0,0,1,60.49-25,87,87,0,0,1,35.42,7.61l7.15,3.23,5.54-5.54,42-42,5.55-5.55-3.23-7.15a86.19,86.19,0,0,1,17.43-95.92,85.24,85.24,0,0,1,60.65-25.11M625.45,590.92l7.15-3.23a85.92,85.92,0,0,1,70.57,0l7.14,3.23,5.55-5.55,43.3-43.29,5.55-5.55-3.23-7.15a85.69,85.69,0,0,1,0-70.55l3.23-7.16-5.55-5.54-43.28-43.27-5.54-5.55-7.15,3.23a85.85,85.85,0,0,1-70.54,0l-7.15-3.23L620,402.86l-43.31,43.3-5.55,5.55,3.23,7.15a85.77,85.77,0,0,1,0,70.55l-3.23,7.15,5.55,5.54,43.26,43.27,5.55,5.55M838.32,55A97,97,0,0,0,749.9,192l-42,42A97,97,0,0,0,579.49,362.41l-43.3,43.3a97.19,97.19,0,0,0-79.9,0L415,364.43a97.08,97.08,0,1,0-48.49,48.48l41.29,41.28a97.27,97.27,0,0,0,0,79.89l-44.76,44.77A97,97,0,0,0,234.69,707.21l-43.29,43.3a97.55,97.55,0,0,0-40.11-8.61A97.1,97.1,0,1,0,239.87,799l43.3-43.3A97,97,0,0,0,411.54,627.31l44.76-44.76a97.17,97.17,0,0,0,79.89,0l43.27,43.27A97,97,0,0,0,707.82,754.19l41.29,41.28A97.11,97.11,0,1,0,797.59,747L756.3,705.72a97.22,97.22,0,0,0,0-79.9l43.31-43.3a97,97,0,1,0,0-176.84l-43.27-43.27a97.22,97.22,0,0,0,0-79.9l42-42A97.07,97.07,0,1,0,838.32,55ZM667.91,419.47a97,97,0,0,0,40-8.59l43.27,43.27a97.22,97.22,0,0,0,0,79.9l-43.3,43.3a97.19,97.19,0,0,0-79.9,0l-43.26-43.27a97.27,97.27,0,0,0,0-79.89L628,410.88a97,97,0,0,0,39.94,8.59Z"/><path class="cls-1" d="M699.49,792.68a29.07,29.07,0,0,1,10.9,11.21,32.53,32.53,0,0,1,4,16,32.14,32.14,0,0,1-4,16A29.11,29.11,0,0,1,699.49,847a30.7,30.7,0,0,1-15.79,4,31.14,31.14,0,0,1-15.88-4,28.91,28.91,0,0,1-11-11.12,32,32,0,0,1-4-16,32.43,32.43,0,0,1,4-16,28.88,28.88,0,0,1,11-11.21,31.23,31.23,0,0,1,15.88-4A30.79,30.79,0,0,1,699.49,792.68Zm2.33,45.91q6.93-7.3,6.93-18.67t-6.93-18.68q-6.92-7.31-18.12-7.31-11.37,0-18.29,7.31t-6.92,18.68q0,11.36,6.92,18.67t18.29,7.31Q694.89,845.9,701.82,838.59Zm-6.76-19.06a10.42,10.42,0,0,1-6.07,3.35l9.34,13.38-7.94.15-8.56-13.22h-3.58v13.22h-6.69V803H686a11.74,11.74,0,0,1,8.17,2.73,9.43,9.43,0,0,1,3,7.39A9.67,9.67,0,0,1,695.06,819.53Zm-16.81-1.95h7.32a5.66,5.66,0,0,0,3.57-1.08,3.88,3.88,0,0,0,1.4-3.27,3.64,3.64,0,0,0-1.4-3.19,5.9,5.9,0,0,0-3.57-1h-7.32Z"/></svg>