<?xml version="1.0" encoding="utf-8"?>
<!-- Generator: Adobe Illustrator 24.3.0, SVG Export Plug-In . SVG Version: 6.00 Build 0)  -->
<svg version="1.1" id="Layer_1" xmlns="http://www.w3.org/2000/svg" xmlns:xlink="http://www.w3.org/1999/xlink" x="0px" y="0px"
	 viewBox="0 0 991 991" style="enable-background:new 0 0 991 991;" xml:space="preserve">
<style type="text/css">
	.st0{fill:#FFFFFF;}
	.st1{fill:#060815;}
	.st2{clip-path:url(#SVGID_2_);}
	.st3{clip-path:url(#SVGID_4_);}
	.st4{opacity:0.52;fill:#231F20;}
	.st5{fill:#141439;}
	.st6{fill:#EDF4FD;}
	.st7{fill:#292966;}
	.st8{fill:#27B6CE;}
	.st9{fill:#1B1B7F;}
	.st10{fill-rule:evenodd;clip-rule:evenodd;fill:#FFFFFF;}
	.st11{fill:#3F90F7;}
	.st12{clip-path:url(#SVGID_10_);}
	.st13{clip-path:url(#SVGID_12_);}
	.st14{clip-path:url(#SVGID_16_);}
	.st15{fill:none;stroke:#141339;stroke-width:0.5;stroke-miterlimit:10;}
	.st16{opacity:0.9;fill:#20FF00;}
	.st17{opacity:0.7;fill:#FF0000;}
	.st18{fill:none;stroke:#20FF00;stroke-miterlimit:10;}
	.st19{fill:none;stroke:#FFFFFF;stroke-width:0.75;stroke-miterlimit:10;}
	.st20{clip-path:url(#SVGID_20_);}
	.st21{clip-path:url(#SVGID_22_);}
	.st22{opacity:0.5;fill:#9012C4;}
	.st23{opacity:0.9;fill:#F9FF00;}
	.st24{fill:#050815;}
	.st25{clip-path:url(#SVGID_32_);}
	.st26{fill:#141339;}
	.st27{opacity:0.64;fill:#365473;}
	.st28{fill:#4193F2;}
	.st29{fill:none;}
	.st30{fill:#F0F6FE;}
	.st31{fill:#3C93F7;}
	.st32{fill:#8D8E91;}
	.st33{fill:#DFECFC;}
	.st34{opacity:0.16;fill:none;stroke:#3C93F7;stroke-width:4;stroke-miterlimit:10;}
	.st35{fill:none;stroke:#BCBEC0;stroke-width:0.25;stroke-miterlimit:10;}
	.st36{fill:none;stroke:#6D6E71;stroke-miterlimit:10;}
	.st37{fill:none;stroke:#FFFFFF;stroke-width:0.25;stroke-miterlimit:10;}
	.st38{clip-path:url(#SVGID_48_);}
	.st39{clip-path:url(#SVGID_50_);}
</style>
<g>
	<path class="st26" d="M838.3,66.3c22.9,0,44.4,8.9,60.6,25.1c16.2,16.2,25.1,37.7,25.1,60.6c0,22.9-8.9,44.4-25.1,60.6
		c-16.1,16.1-37.6,25-60.5,25c-12.1,0-24.4-2.6-35.4-7.6l-7.1-3.2l-5.5,5.5l-42,42l-5.5,5.5l3.2,7.2c10.1,22.4,10.1,48.1,0,70.6
		l-3.2,7.1l5.5,5.5l43.3,43.3l5.5,5.5l7.2-3.2c11-5,23.3-7.6,35.4-7.6c22.9,0,44.3,8.9,60.5,25c16.2,16.2,25.1,37.7,25.1,60.6
		s-8.9,44.4-25.1,60.6c-16.1,16.2-37.6,25-60.5,25c-12.1,0-24.4-2.6-35.4-7.6l-7.1-3.2l-5.5,5.5l-43.3,43.3l-5.5,5.5l3.2,7.2
		c10.1,22.4,10.1,48.1,0,70.6l-3.2,7.2l5.5,5.5l41.3,41.3l5.5,5.5l7.2-3.2c11.2-5,23.1-7.6,35.4-7.6c22.9,0,44.3,8.9,60.5,25
		c33.4,33.4,33.4,87.8,0,121.3c-16.2,16.2-37.7,25.1-60.6,25.1c-22.9,0-44.4-8.9-60.6-25.1c-25-25-32-63.6-17.4-95.9l3.2-7.2
		l-5.5-5.5l-41.3-41.3l-5.5-5.5l-7.1,3.2c-11,5-23.3,7.6-35.4,7.6c-22.9,0-44.3-8.9-60.5-25.1c-25-25-32-63.6-17.4-95.9l3.2-7.1
		l-5.5-5.5l-43.3-43.3l-5.5-5.5l-7.2,3.2c-11.1,5-23,7.6-35.3,7.6c-12.3,0-24.1-2.5-35.3-7.6l-7.1-3.2l-5.5,5.5l-44.8,44.8l-5.5,5.5
		l3.2,7.1c14.6,32.3,7.6,70.9-17.4,95.9c-16.1,16.1-37.6,25-60.5,25c-12.2,0-24.4-2.6-35.4-7.6l-7.2-3.2l-5.5,5.5L231.8,791
		l-5.5,5.5l3.2,7.2c14.6,32.3,7.6,70.9-17.4,95.9c-16.2,16.2-37.7,25.1-60.6,25.1c-22.9,0-44.4-8.9-60.6-25.1
		c-33.4-33.4-33.4-87.8,0-121.3c16.1-16.1,37.6-25,60.5-25c12.2,0,24.4,2.6,35.4,7.6l7.1,3.2l5.5-5.5l43.3-43.3l5.5-5.5l-3.2-7.1
		c-14.6-32.3-7.6-70.9,17.4-95.9c16.1-16.1,37.6-25,60.5-25c12.2,0,24.4,2.6,35.4,7.6l7.2,3.2l5.5-5.5l44.8-44.8l5.5-5.5l-3.2-7.1
		c-10.1-22.4-10.1-48.1,0-70.6l3.2-7.1l-5.5-5.5l-41.3-41.3l-5.5-5.5l-7.1,3.2c-11.2,5-23.1,7.6-35.4,7.6c-22.9,0-44.3-8.9-60.5-25
		c-33.4-33.4-33.4-87.8,0-121.3c16.2-16.2,37.7-25.1,60.6-25.1c22.9,0,44.4,8.9,60.6,25.1c25,25,32,63.6,17.4,95.9l-3.2,7.1l5.5,5.5
		l41.3,41.3l5.5,5.5l7.2-3.2c11.1-5,23-7.6,35.3-7.6c12.3,0,24.1,2.6,35.3,7.6l7.2,3.2l5.5-5.5l43.3-43.3l5.5-5.5l-3.2-7.1
		c-14.6-32.4-7.6-70.9,17.4-95.9c16.2-16.2,37.6-25,60.5-25c12.1,0,24.4,2.6,35.4,7.6l7.2,3.2l5.5-5.5l42-42l5.5-5.5l-3.2-7.2
		c-14.6-32.3-7.6-70.9,17.4-95.9C793.9,75.2,815.4,66.3,838.3,66.3 M625.5,590.9l7.2-3.2c11.1-5,23-7.6,35.3-7.6
		c12.3,0,24.1,2.6,35.3,7.6l7.1,3.2l5.5-5.5l43.3-43.3l5.5-5.5l-3.2-7.2c-10.1-22.4-10.1-48.1,0-70.5l3.2-7.2l-5.6-5.5l-43.3-43.3
		l-5.5-5.5l-7.1,3.2c-11.1,5-23,7.6-35.3,7.6s-24.1-2.5-35.3-7.6l-7.2-3.2l-5.5,5.5l-43.3,43.3l-5.5,5.5l3.2,7.2
		c10.1,22.4,10.1,48.1,0,70.5l-3.2,7.1l5.5,5.5l43.3,43.3L625.5,590.9 M838.3,55c-24.9,0-49.7,9.5-68.7,28.4
		c-29.4,29.4-35.9,72.9-19.8,108.6l-42,42c-12.7-5.7-26.4-8.6-40.1-8.6c-24.8,0-49.6,9.4-68.5,28.4c-29.4,29.4-35.9,72.9-19.8,108.6
		l-43.3,43.3c-12.7-5.7-26.3-8.6-40-8.6c-13.6,0-27.3,2.9-40,8.6L415,364.4c16.1-35.8,9.6-79.2-19.7-108.6
		c-19-19-43.8-28.4-68.7-28.4c-24.9,0-49.7,9.5-68.7,28.4c-37.9,37.9-37.9,99.4,0,137.3c18.9,18.9,43.7,28.4,68.5,28.4
		c13.7,0,27.4-2.9,40.1-8.6l41.3,41.3c-11.4,25.3-11.4,54.5,0,79.9l-44.8,44.8c-12.7-5.7-26.4-8.6-40.1-8.6
		c-24.8,0-49.6,9.4-68.5,28.4c-29.4,29.4-35.9,72.9-19.8,108.6l-43.3,43.3c-12.7-5.7-26.4-8.6-40.1-8.6c-24.8,0-49.6,9.4-68.5,28.4
		c-37.9,37.9-37.9,99.4,0,137.3c19,19,43.8,28.4,68.7,28.4c24.9,0,49.7-9.5,68.7-28.4c29.4-29.4,35.9-72.9,19.8-108.6l43.3-43.3
		c12.7,5.7,26.4,8.6,40.1,8.6c24.8,0,49.6-9.4,68.5-28.4c29.4-29.4,35.9-72.9,19.8-108.6l44.8-44.8c12.7,5.7,26.3,8.6,39.9,8.6
		c13.6,0,27.3-2.9,39.9-8.6l43.3,43.3c-16.1,35.7-9.6,79.2,19.7,108.6c18.9,18.9,43.7,28.4,68.5,28.4c13.7,0,27.4-2.9,40.1-8.6
		l41.3,41.3c-16.1,35.8-9.6,79.2,19.7,108.6c19,19,43.8,28.4,68.7,28.4c24.9,0,49.7-9.5,68.7-28.4c37.9-37.9,37.9-99.4,0-137.3
		c-18.9-18.9-43.7-28.4-68.5-28.4c-13.7,0-27.4,2.9-40.1,8.6l-41.3-41.3c11.4-25.4,11.4-54.5,0-79.9l43.3-43.3
		c12.7,5.7,26.4,8.6,40.1,8.6c24.8,0,49.6-9.4,68.5-28.4c37.9-37.9,37.9-99.4,0-137.3c-18.9-18.9-43.7-28.4-68.5-28.4
		c-13.7,0-27.4,2.9-40.1,8.6l-43.3-43.3c11.4-25.4,11.4-54.5,0-79.9l42-42c12.7,5.7,26.4,8.6,40.1,8.6c24.8,0,49.6-9.4,68.5-28.4
		c37.9-37.9,37.9-99.4,0-137.3C888,64.4,863.2,55,838.3,55L838.3,55z M667.9,419.5c13.6,0,27.3-2.9,39.9-8.6l43.3,43.3
		c-11.5,25.4-11.5,54.5,0,79.9l-43.3,43.3c-12.7-5.7-26.3-8.6-40-8.6c-13.6,0-27.3,2.9-39.9,8.6l-43.3-43.3
		c11.4-25.4,11.4-54.5,0-79.9l43.3-43.3C640.6,416.6,654.3,419.5,667.9,419.5L667.9,419.5z"/>
	<g>
		<g>
			<path class="st26" d="M699.5,792.7c4.6,2.7,8.2,6.4,10.9,11.2c2.6,4.8,4,10.1,4,16c0,5.9-1.3,11.2-4,16
				c-2.6,4.7-6.3,8.4-10.9,11.1c-4.6,2.7-9.9,4-15.8,4c-5.9,0-11.2-1.3-15.9-4c-4.7-2.7-8.3-6.4-11-11.1c-2.6-4.7-4-10-4-16
				c0-5.9,1.3-11.3,4-16c2.6-4.8,6.3-8.5,11-11.2c4.7-2.7,10-4,15.9-4C689.6,788.6,694.9,790,699.5,792.7z M701.8,838.6
				c4.6-4.9,6.9-11.1,6.9-18.7c0-7.6-2.3-13.8-6.9-18.7c-4.6-4.9-10.7-7.3-18.1-7.3c-7.6,0-13.7,2.4-18.3,7.3
				c-4.6,4.9-6.9,11.1-6.9,18.7c0,7.6,2.3,13.8,6.9,18.7c4.6,4.9,10.7,7.3,18.3,7.3C691.2,845.9,697.2,843.5,701.8,838.6z
				 M695.1,819.5c-1.5,1.7-3.5,2.8-6.1,3.3l9.3,13.4l-7.9,0.2l-8.6-13.2h-3.6v13.2h-6.7V803H686c3.4,0,6.1,0.9,8.2,2.7
				c2,1.8,3,4.3,3,7.4C697.2,815.7,696.5,817.8,695.1,819.5z M678.2,817.6h7.3c1.5,0,2.6-0.4,3.6-1.1c0.9-0.7,1.4-1.8,1.4-3.3
				c0-1.5-0.5-2.5-1.4-3.2c-0.9-0.7-2.1-1-3.6-1h-7.3V817.6z"/>
		</g>
	</g>
</g>
</svg>
